# xmcd
#
# Track frame offsets: 
#        150
#        21900
#        32911
#        44545
#        56139
#        69652
#        86221
#        102757
#        116248
#        123821
#        137643
#        160774
#        178417
#        192178
#        213632
#        226349
#
# Disc length: 3281 seconds
#
# Revision: 0
# Processed by: cddbd v1.5.2PL0 Copyright (c) Steve Scherf et al.
# Submitted via: ExactAudioCopy v0.95b4
#
DISCID=ed0ccf10
DTITLE=Duncan&Richard Berry - The Music of Simon&Garfunkel
DYEAR=2006
DGENRE=Vocal
TTITLE0=Bridge over troubled Water
TTITLE1=Cecilia
TTITLE2=El Condor Pasa (If i could)
TTITLE3=Homeward Bound
TTITLE4=I am a Rock
TTITLE5=Late in the Evening
TTITLE6=Mrs. Robinson
TTITLE7=Scarborough Fair
TTITLE8=The 59th Street Bridge Song (Feelin' Groovy)
TTITLE9=Sound of Silence
TTITLE10=The Boxer
TTITLE11=Bright Eyes
TTITLE12=Fifty Ways to leave your Lover
TTITLE13=graceland
TTITLE14=Mother and Child Reunion
TTITLE15=You can call me all
EXTD=
EXTT0=
EXTT1=
EXTT2=
EXTT3=
EXTT4=
EXTT5=
EXTT6=
EXTT7=
EXTT8=
EXTT9=
EXTT10=
EXTT11=
EXTT12=
EXTT13=
EXTT14=
EXTT15=
PLAYORDER=
